<svg width="16" height="16" viewBox="0 0 16 16" fill="none" xmlns="http://www.w3.org/2000/svg">
<path d="M13.6663 7.53333V4.69334C13.6663 2.00667 13.0397 1.33334 10.5197 1.33334H5.47968C2.95968 1.33334 2.33301 2.00667 2.33301 4.69334V12.2C2.33301 13.9733 3.30635 14.3933 4.48635 13.1267L4.493 13.12C5.03967 12.54 5.873 12.5867 6.34633 13.22L7.01967 14.12" stroke="#2D3748" stroke-width="1.2" stroke-linecap="round" stroke-linejoin="round"/>
<path d="M12.1333 14.2667C13.3115 14.2667 14.2667 13.3115 14.2667 12.1333C14.2667 10.9551 13.3115 10 12.1333 10C10.9551 10 10 10.9551 10 12.1333C10 13.3115 10.9551 14.2667 12.1333 14.2667Z" stroke="#2D3748" stroke-width="1.2" stroke-linecap="round" stroke-linejoin="round"/>
<path d="M14.6667 14.6667L14 14" stroke="#2D3748" stroke-width="1.2" stroke-linecap="round" stroke-linejoin="round"/>
<path d="M5.33301 4.66666H10.6663" stroke="#2D3748" stroke-width="1.2" stroke-linecap="round" stroke-linejoin="round"/>
<path d="M6 7.33334H10" stroke="#2D3748" stroke-width="1.2" stroke-linecap="round" stroke-linejoin="round"/>
</svg>
